#!OML:ASF E:\motion texture\Top Level 1\Subject 1\Session 1\male.ASF
:FULLY-SPECIFIED
:DEGREES
405
root -2.41844 17.5186 4.81065 74.0482 -78.589 -66.7446
lowerback -2.68408 3.35699 6.61663
upperback 0.882038 4.1698 1.40989
thorax 2.78659 2.16194 -2.01473
lowerneck -16.5016 -3.78017 -7.64163
upperneck -1.03551 -3.97155 5.80263
head 2.55733 -1.81037 2.72311
rclavicle 5.63555e-014 1.70955e-014
rhumerus -26.6196 9.39709 -95.6597
rradius 57.7321
rwrist 14.5246
rhand -21.6299 -27.2763
rfingers 7.12502
rthumb 4.76615 -57.2027
lclavicle 5.63555e-014 1.70955e-014
lhumerus -29.2398 -1.67622 93.7673
lradius 49.3457
lwrist -16.3722
lhand -14.6944 18.4861
lfingers 7.12502
lthumb 11.4595 48.1529
rfemur 0.430254 4.42898 37.7701
rtibia 19.2024
rfoot -19.258 -10.1425
rtoes 6.05291
lfemur -39.4636 -0.868008 -3.46935
ltibia 25.9465
lfoot -6.14512 2.01739
ltoes -15.0341
406
root -2.58811 17.4882 4.81057 73.4387 -78.6037 -66.0958
lowerback -2.69019 3.49538 6.53604
upperback 0.863552 4.36315 1.28887
thorax 2.79062 2.25891 -2.08219
lowerneck -16.4559 -3.9713 -7.77084
upperneck -0.963971 -4.21239 6.02325
head 2.59687 -1.92056 2.79341
rclavicle 4.37326e-015 3.22031e-014
rhumerus -26.0644 9.89391 -96.518
rradius 55.7157
rwrist 14.4058
rhand -21.4008 -26.9405
rfingers 7.12502
rthumb 4.98738 -56.8618
lclavicle 4.37326e-015 3.22031e-014
lhumerus -29.2081 -1.77192 93.9743
lradius 49.2036
lwrist -16.3623
lhand -14.7204 18.4789
lfingers 7.12502
lthumb 11.4344 48.1471
rfemur 0.630901 4.27574 37.7753
rtibia 19.8692
rfoot -19.5455 -10.2417
rtoes 5.01423
lfemur -39.6797 -1.17298 -3.54031
ltibia 25.7484
lfoot -5.94984 1.77054
ltoes -14.8524
407
root -2.75948 17.4588 4.81195 72.8118 -78.6293 -65.4384
lowerback -2.6888 3.62772 6.45007
upperback 0.842201 4.54926 1.16785
thorax 2.7867 2.35191 -2.14768
lowerneck -16.4151 -4.16566 -7.89889
upperneck -0.880651 -4.45892 6.25974
head 2.64247 -2.03282 2.86761
rclavicle 3.77691e-014 -7.95139e-016
rhumerus -25.5594 10.5188 -97.3115
rradius 53.8501
rwrist 14.2485
rhand -21.1631 -26.5967
rfingers 7.12502
rthumb 5.21688 -56.5124
lclavicle 3.77691e-014 -7.95139e-016
lhumerus -29.1974 -1.8555 94.1775
lradius 49.0473
lwrist -16.3503
lhand -14.7375 18.4899
lfingers 7.12502
lthumb 11.418 48.159
rfemur 0.805923 4.10107 37.7514
rtibia 20.5946
rfoot -19.7788 -10.3081
rtoes 3.9945
lfemur -39.8769 -1.46855 -3.64162
ltibia 25.6628
lfoot -5.75521 1.49993
ltoes -14.6305
408
root -2.93243 17.4307 4.81469 72.2012 -78.6685 -64.8029
lowerback -2.68275 3.7551 6.35677
upperback 0.816771 4.72946 1.04677
thorax 2.77506 2.44156 -2.21001
lowerneck -16.3798 -4.36207 -8.02496
upperneck -0.78448 -4.70972 6.51046
head 2.69452 -2.14646 2.94511
rclavicle -2.57426e-014 0
rhumerus -25.1114 11.2829 -98.0465
rradius 52.1462
rwrist 14.0456
rhand -20.9187 -26.2529
rfingers 7.12502
rthumb 5.45286 -56.1628
lclavicle -2.57426e-014 0
lhumerus -29.2088 -1.92338 94.3734
lradius 48.8794
lwrist -16.3357
lhand -14.7462 18.514
lfingers 7.12502
lthumb 11.4095 48.1836
rfemur 0.949333 3.9112 37.6977
rtibia 21.3806
rfoot -19.9502 -10.3408
rtoes 3.01021
lfemur -40.0573 -1.74676 -3.77278
ltibia 25.6879
lfoot -5.56506 1.20922
ltoes -14.3635
409
root -3.1069 17.4039 4.81876 71.5961 -78.7207 -64.1797
lowerback -2.67252 3.87628 6.25674
upperback 0.788613 4.9019 0.925704
thorax 2.75718 2.52704 -2.26955
lowerneck -16.3491 -4.55961 -8.14914
upperneck -0.677674 -4.96381 6.77593
head 2.75221 -2.26096 3.02614
rclavicle -5.35725e-014 3.10104e-014
rhumerus -24.7268 12.1916 -98.7272
rradius 50.6159
rwrist 13.7932
rhand -20.6659 -25.9106
rfingers 7.12502
rthumb 5.69692 -55.814
lclavicle -5.35725e-014 3.10104e-014
lhumerus -29.2398 -1.97323 94.561
lradius 48.7009
lwrist -16.3171
lhand -14.7504 18.549
lfingers 7.12502
lthumb 11.4055 48.2188
rfemur 1.06113 3.70344 37.6131
rtibia 22.2259
rfoot -20.0493 -10.3411
rtoes 2.05539
lfemur -40.2172 -2.00892 -3.93417
ltibia 25.8162
lfoot -5.38115 0.899185
ltoes -14.0508
410
root -3.28286 17.3787 4.82418 70.9829 -78.7858 -63.5573
lowerback -2.65791 3.9892 6.14884
upperback 0.759107 5.06376 0.805559
thorax 2.73389 2.60695 -2.32494
lowerneck -16.3238 -4.75687 -8.2693
upperneck -0.560068 -5.2196 7.05184
head 2.81549 -2.37566 3.10913
rclavicle -2.47487e-014 2.3059e-014
rhumerus -24.4112 13.249 -99.3573
rradius 49.2684
rwrist 13.4932
rhand -20.404 -25.5693
rfingers 7.12502
rthumb 5.94976 -55.4658
lclavicle -2.47487e-014 2.3059e-014
lhumerus -29.2895 -2.00183 94.7385
lradius 48.5138
lwrist -16.2899
lhand -14.7468 18.6
lfingers 7.12502
lthumb 11.409 48.2696
rfemur 1.14118 3.47468 37.4955
rtibia 23.1306
rfoot -20.0687 -10.3153
rtoes 1.14494
lfemur -40.352 -2.25662 -4.12731
ltibia 26.0404
lfoot -5.20683 0.571898
ltoes -13.6955
411
root -3.4602 17.3551 4.83083 70.3722 -78.8645 -62.9452
lowerback -2.63888 4.09391 6.03278
upperback 0.727031 5.21513 0.686079
thorax 2.70383 2.6813 -2.37637
lowerneck -16.3027 -4.95276 -8.38476
upperneck -0.430993 -5.47602 7.33817
head 2.88434 -2.48998 3.19403
rclavicle 2.8128e-014 -4.77083e-015
rhumerus -24.1716 14.4535 -99.9418
rradius 48.1134
rwrist 13.1471
rhand -20.1392 -25.2364
rfingers 7.12502
rthumb 6.20545 -55.1255
lclavicle 2.8128e-014 -4.77083e-015
lhumerus -29.3587 -2.00592 94.9029
lradius 48.3192
lwrist -16.2572
lhand -14.7381 18.6546
lfingers 7.12502
lthumb 11.4174 48.3237
rfemur 1.18576 3.22765 37.3451
rtibia 24.0965
rfoot -20.0078 -10.2656
rtoes 0.274391
lfemur -40.4606 -2.48735 -4.35059
ltibia 26.3538
lfoot -5.04517 0.230933
ltoes -13.2942
412
root -3.63879 17.3335 4.83868 69.7664 -78.9568 -62.3455
lowerback -2.61672 4.18965 5.90817
upperback 0.692871 5.35483 0.568197
thorax 2.66793 2.74951 -2.42269
lowerneck -16.2856 -5.14598 -8.49579
upperneck -0.291258 -5.73138 7.63358
head 2.95834 -2.6031 3.28058
rclavicle -1.74931e-014 -1.51076e-014
rhumerus -24.0143 15.8007 -100.483
rradius 47.1589
rwrist 12.7631
rhand -19.8715 -24.9053
rfingers 7.12502
rthumb 6.46389 -54.7866
lclavicle -1.74931e-014 -1.51076e-014
lhumerus -29.4476 -1.98381 95.0535
lradius 48.1186
lwrist -16.214
lhand -14.7263 18.7216
lfingers 7.12502
lthumb 11.4287 48.3901
rfemur 1.192 2.96321 37.1614
rtibia 25.125
rfoot -19.8693 -10.1921
rtoes -0.527601
lfemur -40.5403 -2.70196 -4.6021
ltibia 26.7472
lfoot -4.89966 -0.119439
ltoes -12.8499
413
root -3.81856 17.3138 4.84766 69.1729 -79.0621 -61.7663
lowerback -2.59237 4.27636 5.77551
upperback 0.657213 5.48258 0.452926
thorax 2.62719 2.81149 -2.46309
lowerneck -16.2711 -5.33579 -8.60188
upperneck -0.142064 -5.98495 7.93681
head 3.03681 -2.7147 3.36842
rclavicle 4.36332e-014 1.59028e-015
rhumerus -23.9436 17.281 -100.982
rradius 46.4134
rwrist 12.3468
rhand -19.5999 -24.5792
rfingers 7.12502
rthumb 6.72608 -54.4524
lclavicle 4.36332e-014 1.59028e-015
lhumerus -29.554 -1.93412 95.1894
lradius 47.9124
lwrist -16.1612
lhand -14.7147 18.7961
lfingers 7.12502
lthumb 11.4399 48.464
rfemur 1.15782 2.68266 36.9455
rtibia 26.2169
rfoot -19.6519 -10.1007
rtoes -1.28541
lfemur -40.5875 -2.90004 -4.87876
ltibia 27.2117
lfoot -4.77425 -0.474313
ltoes -12.3682
414
root -3.99936 17.2961 4.85778 68.5865 -79.1796 -61.1982
lowerback -2.56977 4.35279 5.63547
upperback 0.618684 5.59645 0.340139
thorax 2.58225 2.86628 -2.49793
lowerneck -16.2593 -5.52095 -8.70293
upperneck 0.017624 -6.23526 8.24717
head 3.11996 -2.82403 3.45742
rclavicle 1.64991e-014 -1.66979e-014
rhumerus -23.9625 18.8759 -101.44
rradius 45.8809
rwrist 11.9104
rhand -19.3193 -24.2556
rfingers 7.12502
rthumb 6.99693 -54.12
lclavicle 1.64991e-014 -1.66979e-014
lhumerus -29.6779 -1.85567 95.3084
lradius 47.7011
lwrist -16.0995
lhand -14.6971 18.8841
lfingers 7.12502
lthumb 11.4568 48.5511
rfemur 1.07572 2.38487 36.6967
rtibia 27.3726
rfoot -19.3531 -9.99555
rtoes -1.98242
lfemur -40.6055 -3.08372 -5.17876
ltibia 27.7388
lfoot -4.67147 -0.829311
ltoes -11.8506
415
root -4.1812 17.2809 4.86893 68.0115 -79.3084 -60.6546
lowerback -2.54002 4.41819 5.49046
upperback 0.580052 5.6958 0.230799
thorax 2.53103 2.91361 -2.52819
lowerneck -16.2517 -5.7008 -8.79803
upperneck 0.188113 -6.48152 8.56279
head 3.20795 -2.93068 3.5469
rclavicle -5.10877e-014 -7.95139e-016
rhumerus -24.0715 20.5661 -101.859
rradius 45.5622
rwrist 11.4704
rhand -19.0382 -23.9336
rfingers 7.12502
rthumb 7.26831 -53.7887
lclavicle -5.10877e-014 -7.95139e-016
lhumerus -29.8172 -1.74786 95.4082
lradius 47.4864
lwrist -16.0345
lhand -14.6734 18.9897
lfingers 7.12502
lthumb 11.4797 48.6554
rfemur 0.955025 2.06948 36.4174
rtibia 28.5881
rfoot -18.9718 -9.87844
rtoes -2.59968
lfemur -40.5769 -3.25448 -5.49868
ltibia 28.3124
lfoot -4.59252 -1.1794
ltoes -11.3023
416
root -4.36389 17.268 4.88101 67.455 -79.4476 -60.136
lowerback -2.51233 4.47291 5.33858
upperback 0.540535 5.7805 0.126457
thorax 2.47751 2.95343 -2.55054
lowerneck -16.2459 -5.8742 -8.88352
upperneck 0.367088 -6.72286 8.87782
head 3.29919 -3.03449 3.63463
rclavicle 6.58971e-014 -1.90833e-014
rhumerus -24.2695 22.3267 -102.235
rradius 45.4566
rwrist 11.0349
rhand -18.7735 -23.6135
rfingers 7.12502
rthumb 7.52374 -53.4597
lclavicle 6.58971e-014 -1.90833e-014
lhumerus -29.9718 -1.61364 95.4906
lradius 47.2704
lwrist -15.9616
lhand -14.6454 19.1189
lfingers 7.12502
lthumb 11.5068 48.7831
rfemur 0.784271 1.73882 36.1089
rtibia 29.8647
rfoot -18.5097 -9.75594
rtoes -3.12815
lfemur -40.5091 -3.41268 -5.83399
ltibia 28.9251
lfoot -4.5384 -1.51796
ltoes -10.7292
417
root -4.5473 17.2577 4.89409 66.9181 -79.596 -59.6448
lowerback -2.48394 4.51642 5.18416
upperback 0.500777 5.84985 0.0273333
thorax 2.42114 2.98547 -2.56733
lowerneck -16.2467 -6.04162 -8.96697
upperneck 0.557977 -6.95869 9.19839
head 3.39592 -3.13475 3.72367
rclavicle 2.54444e-014 1.35174e-014
rhumerus -24.5521 24.1294 -102.564
rradius 45.5584
rwrist 10.622
rhand -18.5033 -23.2976
rfingers 7.12502
rthumb 7.78459 -53.1343
lclavicle 2.54444e-014 1.35174e-014
lhumerus -30.1374 -1.45048 95.5537
lradius 47.0472
lwrist -15.8848
lhand -14.6183 19.2546
lfingers 7.12502
lthumb 11.5329 48.9173
rfemur 0.565894 1.39512 35.7731
rtibia 31.1952
rfoot -17.9619 -9.63386
rtoes -3.5456
lfemur -40.397 -3.56163 -6.18183
ltibia 29.5639
lfoot -4.5096 -1.83897
ltoes -10.1407
418
root -4.73121 17.2499 4.90798 66.4332 -79.7559 -59.2108
lowerback -2.45682 4.55018 5.02527
upperback 0.459343 5.90579 -0.0665139
thorax 2.36153 3.01064 -2.5772
lowerneck -16.2494 -6.20097 -9.04343
upperneck 0.757205 -7.18727 9.52017
head 3.49578 -3.23085 3.81219
rclavicle 1.32192e-014 -3.02153e-014
rhumerus -24.9158 25.95 -102.846
rradius 45.8604
rwrist 10.2384
rhand -18.2368 -22.9805
rfingers 7.12502
rthumb 8.0418 -52.8075
lclavicle 1.32192e-014 -3.02153e-014
lhumerus -30.3148 -1.26014 95.596
lradius 46.8177
lwrist -15.8091
lhand -14.5992 19.3775
lfingers 7.12502
lthumb 11.5513 49.0392
rfemur 0.292709 1.04464 35.4112
rtibia 32.5808
rfoot -17.3303 -9.51849
rtoes -3.86113
lfemur -40.24 -3.6966 -6.53881
ltibia 30.2177
lfoot -4.50847 -2.13558
ltoes -9.5447
